<?xml version="1.0" encoding="UTF-8"?>
<svg width="62px" height="35px" viewBox="0 0 62 35" version="1.1" xmlns="http://www.w3.org/2000/svg" xmlns:xlink="http://www.w3.org/1999/xlink">
    <!-- Generator: Sketch 49.1 (51147) - http://www.bohemiancoding.com/sketch -->
    <title>Group 85 Copy</title>
    <desc>Created with Sketch.</desc>
    <defs>
        <polygon id="path-1" points="0.0313568345 0.402841121 61.7146662 0.402841121 61.7146662 28.6990206 0.0313568345 28.6990206"></polygon>
        <polygon id="path-3" points="0.270435971 0.0711925234 51.6611655 0.0711925234 51.6611655 21.1235888 0.270435971 21.1235888"></polygon>
    </defs>
    <g id="Group-85-Copy" stroke="none" stroke-width="1" fill="none" fill-rule="evenodd">
        <path d="M30.8725655,11.6365907 C16.6727813,11.6527402 5.17691079,16.3598804 5.17691079,22.1629458 C5.17691079,27.9655626 16.6727813,32.671357 30.8725655,32.6893009 C45.0714576,32.671357 56.5677741,27.9655626 56.5677741,22.1629458 C56.5677741,16.3598804 45.0714576,11.6527402 30.8725655,11.6365907" id="Fill-65" fill="#FFDB00"></path>
        <path d="M29.6406835,11.8569421 L29.6304245,11.4442318 C30.0421223,11.4352598 30.4569424,11.4307738 30.8713165,11.4307738 L30.9235036,11.4307738 L30.9235036,11.8425869 L30.8726547,11.8425869 C30.4600647,11.8425869 30.049259,11.8479701 29.6406835,11.8569421 Z M33.3856619,11.8959701 C32.9779784,11.8802692 32.5676187,11.8663626 32.1559209,11.8569421 L32.1639496,11.4460262 C32.581446,11.4549981 32.9935899,11.4675589 33.4048417,11.4828112 L33.3856619,11.8959701 Z M27.1780791,11.9560822 L27.1531007,11.5451664 C27.5639065,11.5195963 27.9751583,11.4989607 28.3917626,11.481914 L28.4073741,11.8941757 C27.993446,11.9098766 27.5848705,11.9309607 27.1780791,11.9560822 Z M35.8473741,12.0471477 C35.4414748,12.0135028 35.0315612,11.9829981 34.6171871,11.9583252 L34.6412734,11.5478579 C35.0596619,11.5720822 35.4713597,11.6025869 35.8794892,11.6344374 L35.8473741,12.0471477 Z M24.7217194,12.1534654 L24.6793453,11.7452411 C25.0879209,11.7026243 25.4991727,11.6640449 25.9144388,11.632643 L25.9487842,12.0404187 C25.5357482,12.0754093 25.1253885,12.1117458 24.7217194,12.1534654 Z M38.3001655,12.2970168 C37.8956043,12.247671 37.4870288,12.2005682 37.0748849,12.1579514 L37.1150288,11.7488299 C37.5325252,11.7909981 37.9411007,11.8389981 38.3487842,11.8878953 L38.3001655,12.2970168 Z M22.2760647,12.457615 L22.2154029,12.0484935 C22.6217482,11.9879327 23.0316619,11.9345495 23.446482,11.8829607 L23.4964388,12.2916336 C23.0851871,12.3423252 22.6770576,12.3979514 22.2760647,12.457615 Z M40.7346691,12.6581383 C40.3350144,12.5899514 39.928223,12.5235589 39.5183094,12.4647925 L39.5785252,12.0543252 C39.9915612,12.1166804 40.4001367,12.1812785 40.8055899,12.2526056 L40.7346691,12.6581383 Z M19.8478058,12.8730168 L19.7693022,12.4665869 C20.1711871,12.389428 20.5775324,12.3145121 20.9892302,12.2427364 L21.059259,12.6487178 C20.6488993,12.7195963 20.2465683,12.791372 19.8478058,12.8730168 Z M43.1504388,13.1354467 C42.7565827,13.0461757 42.3546978,12.9613907 41.9461223,12.8792972 L42.025964,12.4760075 C42.4363237,12.5576523 42.842223,12.6424374 43.2405396,12.732157 L43.1504388,13.1354467 Z M17.4436331,13.408643 L17.3446115,13.0089421 C17.742036,12.9093533 18.1439209,12.8120075 18.5533885,12.7222879 L18.6434892,13.1224374 C18.2362518,13.2144 17.8374892,13.3086056 17.4436331,13.408643 Z M45.5367698,13.7424 C45.1496043,13.6306991 44.7544101,13.5248299 44.3480647,13.4207551 L44.4497626,13.0219514 C44.8578921,13.1246804 45.2571007,13.2350355 45.6496187,13.3453907 L45.5367698,13.7424 Z M15.0787122,14.087372 L14.9515899,13.6935028 C15.3418777,13.5678953 15.7388561,13.4490168 16.1434173,13.3310355 L16.2567122,13.7293907 C15.8557194,13.8442318 15.4627554,13.9608673 15.0787122,14.087372 Z M47.8767122,14.5005308 C47.5002518,14.3623626 47.1104101,14.2295776 46.7138777,14.1017271 L46.841446,13.7083065 C47.2433309,13.8379514 47.6340647,13.9743252 48.0172158,14.1133907 L47.8767122,14.5005308 Z M12.7677626,14.9258019 L12.6134317,14.5440449 C12.9921223,14.3897271 13.3779496,14.2407925 13.7758201,14.0958953 L13.9176619,14.4839327 C13.5220216,14.6252411 13.1397626,14.7746243 12.7677626,14.9258019 Z M50.1461799,15.4385495 C49.7822086,15.2676336 49.4066403,15.1007551 49.021705,14.9459888 L49.1782662,14.5624374 C49.569,14.7230355 49.9499209,14.8912598 50.3210288,15.0653159 L50.1461799,15.4385495 Z M10.5469137,15.9625121 L10.3533309,15.6009421 C10.7106115,15.4120822 11.0857338,15.2227738 11.4706691,15.0437832 L11.6441799,15.4170168 C11.2641511,15.5933159 10.8943813,15.7781383 10.5469137,15.9625121 Z M52.3019065,16.6035589 C51.9696043,16.3949607 51.6136619,16.1877084 51.243446,15.9885308 L51.4356906,15.6251664 C51.8143813,15.8297271 52.1792446,16.0410168 52.5195755,16.2541009 L52.3019065,16.6035589 Z M8.47504317,17.2629981 L8.23373381,16.9314841 C8.55399281,16.6919327 8.90235252,16.4559701 9.27123022,16.2258393 L9.48577698,16.576643 C9.12715827,16.7995963 8.78861151,17.0306243 8.47504317,17.2629981 Z M54.2471007,18.069129 C53.9616331,17.8066991 53.6489568,17.5460636 53.3108561,17.2926056 L53.5539496,16.960643 C53.9036475,17.2244187 54.2301511,17.4949234 54.5245396,17.765428 L54.2471007,18.069129 Z M6.69711511,18.9098019 L6.38399281,18.6424374 C6.64046763,18.3338019 6.93351799,18.0274093 7.25957554,17.7313346 L7.53344604,18.0345869 C7.22523022,18.3198953 6.94288489,18.6141757 6.69711511,18.9098019 Z M55.7551727,19.9361944 C55.572295,19.6033346 55.3439209,19.2695776 55.0780791,18.9465869 L55.3929856,18.6846056 C55.675777,19.0273346 55.9193165,19.3821757 56.1146835,19.735671 L55.7551727,19.9361944 Z M5.54810791,20.9854654 L5.15648201,20.8719701 C5.26977698,20.4740636 5.43704317,20.0757084 5.6564964,19.6885682 L6.01243885,19.8917832 C5.81171942,20.2529047 5.65471223,20.6203065 5.54810791,20.9854654 Z M56.771259,22.2047551 L56.3622374,22.1984748 L56.5678633,22.2025121 L56.3622374,22.1630355 C56.3622374,21.7853159 56.3118345,21.4053533 56.2083525,21.0330168 L56.6031007,20.9231103 C56.7146115,21.3313346 56.771259,21.7503252 56.771259,22.1630355 L56.771259,22.2047551 Z M5.14845324,23.4298766 C5.03158993,23.0113346 4.97271223,22.5860636 4.97271223,22.1630355 L5.38173381,22.151372 L5.38173381,22.1630355 C5.38173381,22.5474841 5.43525899,22.9368673 5.54230935,23.3186243 L5.14845324,23.4298766 Z M56.0758777,24.6603813 L55.7194892,24.4567178 C55.9228849,24.0960449 56.0830144,23.7295402 56.1882806,23.3652785 L56.5825827,23.4805682 C56.4666115,23.8762318 56.2953309,24.2736897 56.0758777,24.6603813 Z M6.36927338,25.6647925 C6.08335971,25.3211664 5.83892806,24.9672224 5.64356115,24.6141757 L5.99861151,24.4109607 C6.1855036,24.7442692 6.41432374,25.0762318 6.6815036,25.4010168 L6.36927338,25.6647925 Z M54.4656619,26.6135776 L54.1900072,26.3103252 C54.5013453,26.0241196 54.7832446,25.7320822 55.0312446,25.4378019 L55.3439209,25.703372 C55.0861079,26.0120075 54.7903813,26.3166056 54.4656619,26.6135776 Z M8.21143165,27.381129 C7.85994964,27.1186991 7.53344604,26.8504374 7.24128777,26.5785869 L7.51783453,26.2766804 C7.79973381,26.5350729 8.11553237,26.7948112 8.45407914,27.0491664 L8.21143165,27.381129 Z M52.4508849,28.1136897 L52.2363381,27.7633346 C52.5940647,27.5439701 52.9352878,27.3115963 53.247964,27.079671 L53.4915036,27.4125308 C53.1681223,27.651185 52.8179784,27.8875963 52.4508849,28.1136897 Z M10.3328129,28.7143626 C9.95456835,28.5120449 9.58881295,28.3007551 9.24714388,28.087671 L9.46481295,27.7364187 C9.79800719,27.9477084 10.1570719,28.1518206 10.5232734,28.3509981 L10.3328129,28.7143626 Z M50.2492158,29.2939514 L50.0774892,28.9189234 C50.4566259,28.7430729 50.8268417,28.5604935 51.1756475,28.3720822 L51.3678921,28.7358953 C51.0123957,28.9283439 50.6345971,29.1145121 50.2492158,29.2939514 Z M12.5911295,29.7730542 C12.2021799,29.6133533 11.8176906,29.4469234 11.4488129,29.2719701 L11.6205396,28.9005308 C11.9845108,29.0678579 12.3636475,29.2356336 12.7432302,29.3921944 L12.5911295,29.7730542 Z M47.9440647,30.2404935 L47.8062374,29.8506617 C48.1983094,29.7102505 48.5823525,29.5622131 48.9534604,29.4101383 L49.1073453,29.7923439 C48.7295468,29.9453159 48.3428273,30.0946991 47.9440647,30.2404935 Z M14.9301799,30.6262879 C14.5278489,30.496643 14.1344388,30.3607178 13.7517338,30.2216523 L13.8904532,29.833615 C14.270036,29.9726804 14.6580935,30.1041196 15.0537338,30.2337645 L14.9301799,30.6262879 Z M45.5742374,31.0017645 L45.4649568,30.6043065 C45.8650576,30.4903626 46.2575755,30.3719327 46.6425108,30.247671 L46.7660647,30.6419888 C46.3775612,30.7644561 45.9805827,30.8869234 45.5742374,31.0017645 Z M17.3214173,31.3117458 C16.9132878,31.2085682 16.5136331,31.1000075 16.120223,30.9869607 L16.2321799,30.5908486 C16.6211295,30.7021009 17.0167698,30.8084187 17.4195468,30.9133907 L17.3214173,31.3117458 Z M43.1642662,31.6109607 L43.0768417,31.2085682 C43.4840791,31.1179514 43.8832878,31.0224 44.2749137,30.9232598 L44.3743813,31.3243065 C43.9791871,31.4234467 43.5750719,31.5181009 43.1642662,31.6109607 Z M19.7434317,31.8558953 C19.3317338,31.7733533 18.9276187,31.6903626 18.5270719,31.6001944 L18.6171727,31.1964561 C19.0114748,31.2866243 19.416482,31.3687178 19.8228273,31.452157 L19.7434317,31.8558953 Z M40.7270863,32.0882692 L40.661518,31.6809421 C41.0696475,31.6109607 41.4737626,31.5387364 41.870741,31.4606804 L41.9505827,31.8662131 C41.5491439,31.9429234 41.1410144,32.0164935 40.7270863,32.0882692 Z M22.1926547,32.2766804 C21.7769424,32.2138766 21.369705,32.1483813 20.9673741,32.080643 L21.0329424,31.6719701 C21.4352734,31.7406056 21.8411727,31.8078953 22.2519784,31.8675589 L22.1926547,32.2766804 Z M38.2725108,32.4484935 L38.222554,32.0380262 C38.6342518,31.989129 39.0414892,31.9339514 39.4433741,31.875185 L39.5026978,32.281615 C39.0985827,32.3408299 38.687777,32.3978019 38.2725108,32.4484935 Z M24.6530288,32.5799327 C24.2395468,32.5382131 23.828741,32.4920075 23.4197194,32.4413159 L23.4727986,32.0304 C23.8751295,32.0824374 24.283259,32.1281944 24.6954029,32.1703626 L24.6530288,32.5799327 Z M35.8023237,32.6983626 L35.7724388,32.2869981 C36.1832446,32.2533533 36.5927122,32.2170168 36.9995036,32.176643 L37.0396475,32.5857645 C36.6310719,32.6283813 36.2193741,32.6647178 35.8023237,32.6983626 Z M27.1267842,32.7822505 C26.7101799,32.7557832 26.3002662,32.7261757 25.8903525,32.6938766 L25.9224676,32.2829607 C26.3301511,32.3148112 26.7382806,32.3435215 27.1531007,32.3704374 L27.1267842,32.7822505 Z M33.325446,32.8455028 L33.3107266,32.4341383 C33.7228705,32.4184374 34.1354604,32.3978019 34.5426978,32.3722318 L34.565,32.7849421 C34.1559784,32.8087178 33.7438345,32.8289047 33.325446,32.8455028 Z M29.6063381,32.8822879 C29.1910719,32.8733159 28.7753597,32.8603065 28.3663381,32.844157 L28.3837338,32.4301009 C28.7914173,32.4484935 29.2008849,32.4624 29.6143669,32.4709234 L29.6063381,32.8822879 Z M30.8726547,32.8957458 L30.8472302,32.6889421 L30.8472302,32.4839327 L30.8726547,32.4839327 C31.2763237,32.4839327 31.6795468,32.4807925 32.0796475,32.4709234 L32.0858921,32.8822879 C31.6831151,32.8917084 31.279446,32.8957458 30.8726547,32.8957458 Z" id="Fill-67" fill="#DAB800"></path>
        <path d="M34.540646,19.4077907 C34.4688331,18.1306318 33.2123295,17.4231925 31.7444014,17.4231925 C31.1373367,17.4231925 30.3014518,17.7242019 30.3090345,18.3194916 C30.3219698,20.1143327 38.838718,19.6881645 39.2927899,24.0305944 C39.6197396,27.1586692 36.2940417,28.3330991 33.485754,28.3330991 C33.1989482,28.3330991 32.9166029,28.312015 32.6552216,28.2909308 L32.6984878,29.6676785 L31.1681137,29.6676785 L31.1391209,27.9755664 C29.9852072,27.617585 29.1203295,26.9917907 28.5663439,26.4184822 L28.2911353,28.0163888 L24.1688043,28.0163888 L24.4533799,22.9777346 L28.6038115,22.9777346 C28.5868619,24.5976224 30.4972647,24.8730617 31.4549194,24.9120897 C32.2524446,24.9120897 33.3858403,24.7537346 33.3528331,23.9354916 C33.2926173,22.4497346 24.7384014,23.0723888 24.9828331,18.4733607 C25.1126317,16.0087626 28.0181568,14.9384075 30.0142,14.9384075 C30.3192935,14.9384075 30.6261712,14.9541084 30.9303727,14.9864075 L30.9120849,13.8339589 L32.1962432,13.8339589 L32.2426317,15.2237159 C33.1124158,15.4771738 33.8675669,15.8966131 34.3604446,16.5807252 L34.4871209,15.2237159 L38.001495,15.2237159 L38.4207755,19.4077907 L34.540646,19.4077907 Z" id="Fill-69" fill="#DAB800"></path>
        <g id="Group-75">
            <mask id="mask-2" fill="white">
                <use xlink:href="#path-1"></use>
            </mask>
            <g id="Clip-74"></g>
            <path d="M30.8725655,0.402796262 C13.8297022,0.424328972 0.0313568345,6.74956262 0.0313568345,14.5497869 C0.0313568345,22.3500112 13.8297022,28.6738991 30.8725655,28.6990206 C47.9145367,28.6738991 61.7146662,22.3500112 61.7146662,14.5497869 C61.7146662,6.74956262 47.9145367,0.424328972 30.8725655,0.402796262" id="Fill-73" fill="#FFCE00" mask="url(#mask-2)"></path>
        </g>
        <g id="Group-78" transform="translate(4.906475, 2.691589)">
            <mask id="mask-4" fill="white">
                <use xlink:href="#path-3"></use>
            </mask>
            <g id="Clip-77"></g>
            <path d="M25.9660906,0.0711925234 C11.7663065,0.0877906542 0.270435971,4.79448224 0.270435971,10.5970991 C0.270435971,16.3997159 11.7663065,21.1064075 25.9660906,21.1239028 C40.1649827,21.1064075 51.6612993,16.3997159 51.6612993,10.5970991 C51.6612993,4.79448224 40.1649827,0.0877906542 25.9660906,0.0711925234" id="Fill-76" fill="#FFFFFF" mask="url(#mask-4)"></path>
        </g>
        <path d="M56.0944777,21.2017346 C54.4847079,22.1967252 52.5939309,23.0939215 50.4747799,23.8686505 C48.7432403,24.5007252 46.8609381,25.0511551 44.854636,25.5069308 C43.0704633,25.9147065 41.1939597,26.2444262 39.2358302,26.4933981 C37.4231108,26.7217346 35.5452691,26.8791925 33.6156863,26.9581458 C32.7120029,26.9953794 31.7976144,27.016015 30.8729669,27.0178093 C29.9019309,27.016015 28.9424921,26.9953794 27.9968806,26.9536598 C26.0672978,26.8711178 24.1894561,26.710071 22.3767367,26.4772486 C20.4181612,26.2251364 18.5394273,25.8864449 16.7570388,25.4768748 C14.7493986,25.0161645 12.8684345,24.4576598 11.1360029,23.8184075 C9.01417554,23.0351551 7.12473669,22.1271925 5.51942734,21.1187439 C2.74325468,19.3781832 0.818578417,17.3424449 0.0317582734,15.1362393 L0.0317582734,22.7072299 C0.927858993,24.7725757 2.84093813,26.7064822 5.51942734,28.3864822 C7.13142734,29.3989682 9.0230964,30.3176972 11.1360029,31.1179963 C12.8711108,31.7742953 14.7551971,32.3458093 16.7570388,32.8253607 C18.5429957,33.251529 20.4203914,33.6023327 22.3767367,33.8656598 C24.1916863,34.1092486 26.069082,34.2810617 27.9968806,34.3689869 C28.9456144,34.4111551 29.902823,34.4331364 30.8729669,34.4340336 C31.7944921,34.4331364 32.7102187,34.4120523 33.6156863,34.3730243 C35.5417007,34.2904822 37.4208806,34.1253981 39.2358302,33.8831551 C41.1903914,33.6247626 43.0682331,33.2753047 44.854636,32.8558654 C46.8573698,32.3821458 48.7414561,31.8151178 50.4747799,31.1659963 C52.5876863,30.3778093 54.4766791,29.4693981 56.0944777,28.4667813 C58.8398734,26.7679402 60.8020173,24.8066692 61.7141755,22.7072299 L61.7141755,15.1362393 C60.913082,17.3783327 58.939341,19.4436785 56.0944777,21.2017346" id="Fill-79" fill="#EDBE00"></path>
        <path d="M30.9095871,5.68521869 C17.5282921,5.70136822 8.20063741,9.89127477 8.20063741,13.6420037 C8.20063741,17.3922841 17.527846,21.5826393 30.9118173,21.5992374 C44.2948964,21.5826393 53.6225511,17.3922841 53.6225511,13.6420037 C53.6225511,9.89127477 44.2944504,5.70136822 30.9095871,5.68521869 M30.9131554,24.660471 L30.9095871,24.660471 C18.4248388,24.6461159 5.15594676,20.7792 5.15594676,13.6420037 C5.15594676,6.50480748 18.4248388,2.63789159 30.9095871,2.62398505 C43.3979036,2.63789159 56.6667957,6.50480748 56.6667957,13.6420037 C56.6667957,20.7792 43.3979036,24.6461159 30.9131554,24.660471" id="Fill-81" fill="#DBA900"></path>
        <path d="M40.5822561,13.6754243 L36.4938245,11.8621907 L37.0964288,11.5795738 C37.7320403,11.2817047 38.0986878,11.068172 38.2012777,10.9371813 C38.3029755,10.8084336 38.2035079,10.6787888 37.905105,10.5513869 C37.6655799,10.4491065 37.4037525,10.4105271 37.1178388,10.4352 C36.8314791,10.4612187 36.5219252,10.5513869 36.1851626,10.7057047 C35.6182417,10.965443 35.3425871,11.2018542 35.3577525,11.4162841 C35.3680115,11.628471 35.6258245,12.1546766 36.148141,13.0114991 C36.6053353,13.7575178 36.8742993,14.2998729 36.9492345,14.6295925 C37.0237237,14.9624523 36.9081986,15.3347888 36.5990906,15.7479477 C36.2850763,16.1664897 35.6873784,16.5993869 34.7988604,17.0457421 C33.3514504,17.7720224 31.829105,18.169929 30.2532345,18.2251065 C28.6742417,18.2807327 27.0787453,17.9900411 25.4903856,17.3629009 L23.8458245,18.1385271 L22.0415799,17.1659664 L23.7369899,16.3885458 C22.8252777,15.7972935 22.3819108,15.1392 22.3979683,14.4156112 C22.4126878,13.7095178 23.3377813,12.9639477 25.1406878,12.1833869 L25.9168029,11.8469383 L29.6880978,13.6592748 L28.7117094,14.1069757 C27.623364,14.6062654 26.9783856,14.9400224 26.7883712,15.1037607 C26.5988029,15.2688449 26.6585727,15.429443 26.9681266,15.5860037 C27.2330763,15.7201346 27.5261266,15.7766579 27.8459396,15.7546766 C28.1644144,15.7326953 28.5065295,15.6349009 28.873623,15.4635364 C29.7862273,15.0351252 30.3696518,14.7018168 30.6305871,14.4613682 C30.8901842,14.2222654 30.8826014,13.8266019 30.6122993,13.2797607 C30.1800835,12.3866019 29.9334216,11.7765084 29.8642849,11.431985 C29.7955942,11.0914991 29.9222705,10.7200598 30.2380691,10.3181159 C30.5498532,9.92065794 31.0824288,9.56088224 31.8340115,9.2356486 C32.9062993,8.77090093 34.0472777,8.54435888 35.2676518,8.55108785 C36.4898101,8.55736822 37.8100978,8.79691963 39.2445727,9.27602243 L40.3284576,8.7798729 L42.1344863,9.51916262 L41.0532777,10.0287701 C42.1558964,10.6092561 42.7424432,11.1749383 42.7973065,11.7240224 C42.8530619,12.2834243 42.3606302,12.8266766 41.3057381,13.3537794 C41.1572058,13.4282467 40.9158964,13.5354617 40.5822561,13.6754243" id="Fill-83" fill="#DBA900"></path>
    </g>
</svg>